<svg width="157" height="151" viewBox="0 0 157 151" fill="none" xmlns="http://www.w3.org/2000/svg">
<g clip-path="url(#clip0_507_777)">
<path d="M24.3658 121.646C21.5605 121.491 19.0557 121.496 16.586 121.186C8.8662 120.228 2.81464 113.628 2.79961 105.875C2.73449 76.5858 2.73449 47.3014 2.80963 18.012C2.82967 9.69491 10.2288 2.7657 18.8503 2.7607C55.4302 2.74074 92.0101 2.73574 128.59 2.77069C132.998 2.77069 137.492 2.55602 141.8 3.29987C149.034 4.54792 154.194 11.1327 154.204 18.4713C154.249 47.4262 154.264 76.3811 154.214 105.336C154.199 114.741 147.196 121.391 137.211 121.446C120.174 121.541 103.136 121.486 86.0988 121.496C78.2488 121.496 70.3938 121.636 62.5488 121.421C59.8236 121.346 58.0702 122.32 56.2718 124.152C48.9728 131.585 41.6138 138.959 34.1195 146.192C32.9322 147.336 30.9684 148.214 29.3403 148.254C26.2995 148.324 24.3909 145.848 24.3808 142.543C24.3558 135.649 24.3708 128.755 24.3708 121.646H24.3658ZM67.6235 83.6199C80.6233 83.6199 93.2274 83.6648 105.826 83.5749C107.941 83.56 109.373 82.0573 109.949 80.0854C112.048 72.9165 114.117 65.7427 116.056 58.5289C117.013 54.9794 115.41 52.3985 111.778 51.7345C109.343 51.2902 106.808 51.3301 104.314 51.2702C101.183 51.2003 98.0466 51.2552 94.6451 51.2552C94.6451 45.8786 94.575 40.9013 94.6752 35.9241C94.7303 33.2283 93.9037 31.2264 91.2837 30.173C88.8941 29.2145 87.0656 29.7188 84.8865 32.13C79.5763 37.9959 74.2562 43.8567 69.0712 49.8325C68.2447 50.786 67.7086 52.3186 67.6886 53.5966C67.5634 61.664 67.6235 69.7365 67.6235 77.8039C67.6235 79.6211 67.6235 81.4383 67.6235 83.6149V83.6199ZM40.7772 51.38V83.4751H56.6976V51.38H40.7772Z" stroke="white" stroke-width="4" stroke-miterlimit="10"/>
</g>
<defs>
<clipPath id="clip0_507_777">
<rect width="157" height="151" fill="white"/>
</clipPath>
</defs>
</svg>
