<svg width="109" height="48" viewBox="0 0 109 48" fill="none" xmlns="http://www.w3.org/2000/svg">
<path d="M73.2319 12.8216C73.2319 13.8376 72.9982 14.7703 72.531 15.6198C72.0637 16.4526 71.3462 17.1271 70.3783 17.6434C69.4104 18.1598 68.2089 18.4179 66.7738 18.4179H64.1205V24.7138H59.8402V7.17535H66.7738C68.1756 7.17535 69.3604 7.41685 70.3282 7.89987C71.2961 8.38288 72.022 9.04911 72.506 9.89855C72.9899 10.748 73.2319 11.7223 73.2319 12.8216ZM66.4484 15.0202C67.2661 15.0202 67.8752 14.8286 68.2757 14.4456C68.6762 14.0625 68.8764 13.5212 68.8764 12.8216C68.8764 12.1221 68.6762 11.5808 68.2757 11.1977C67.8752 10.8146 67.2661 10.6231 66.4484 10.6231H64.1205V15.0202H66.4484Z" fill="white"/>
<path d="M82.0434 7.17535C83.8957 7.17535 85.5144 7.54177 86.8994 8.27462C88.2845 9.00747 89.3525 10.0401 90.1034 11.3726C90.871 12.6884 91.2548 14.2124 91.2548 15.9446C91.2548 17.6601 90.871 19.1841 90.1034 20.5166C89.3525 21.849 88.2761 22.8817 86.8744 23.6145C85.4893 24.3474 83.879 24.7138 82.0434 24.7138H75.4602V7.17535H82.0434ZM81.768 21.0162C83.3867 21.0162 84.6466 20.5749 85.5477 19.6921C86.4489 18.8093 86.8994 17.5602 86.8994 15.9446C86.8994 14.329 86.4489 13.0715 85.5477 12.1721C84.6466 11.2726 83.3867 10.8229 81.768 10.8229H79.7405V21.0162H81.768Z" fill="white"/>
<path d="M108.866 7.17535V24.7138H104.585V17.4935H97.9272V24.7138H93.6469V7.17535H97.9272V14.0458H104.585V7.17535H108.866Z" fill="white"/>
<path d="M62.7086 40.5478C62.0263 40.5478 61.4132 40.4294 60.8693 40.1925C60.3353 39.9457 59.915 39.6101 59.6085 39.1857C59.3019 38.7515 59.1437 38.253 59.1338 37.6904H60.5726C60.6221 38.1741 60.8198 38.5837 61.1659 38.9192C61.5219 39.245 62.0362 39.4078 62.7086 39.4078C63.3514 39.4078 63.8557 39.2499 64.2216 38.934C64.5974 38.6083 64.7853 38.1938 64.7853 37.6904C64.7853 37.2956 64.6765 36.9748 64.4589 36.7281C64.2414 36.4813 63.9694 36.2938 63.6431 36.1655C63.3168 36.0372 62.8767 35.899 62.3229 35.751C61.6406 35.5733 61.0918 35.3956 60.6764 35.218C60.271 35.0403 59.92 34.764 59.6233 34.3889C59.3365 34.004 59.1931 33.4907 59.1931 32.8492C59.1931 32.2866 59.3365 31.7881 59.6233 31.3539C59.9101 30.9196 60.3106 30.584 60.8248 30.3471C61.3489 30.1102 61.9472 29.9918 62.6196 29.9918C63.5887 29.9918 64.3798 30.2336 64.9929 30.7172C65.6159 31.2009 65.967 31.8424 66.0461 32.6419H64.5628C64.5133 32.2471 64.3056 31.9016 63.9398 31.6055C63.5739 31.2996 63.0893 31.1466 62.4861 31.1466C61.9224 31.1466 61.4626 31.2946 61.1066 31.5907C60.7506 31.877 60.5726 32.2816 60.5726 32.8048C60.5726 33.1798 60.6764 33.4858 60.8841 33.7227C61.1017 33.9595 61.3637 34.1421 61.6703 34.2705C61.9867 34.3889 62.4268 34.5271 62.9904 34.685C63.6728 34.8725 64.2216 35.0601 64.6369 35.2476C65.0523 35.4252 65.4082 35.7065 65.7049 36.0915C66.0016 36.4665 66.1499 36.9798 66.1499 37.6312C66.1499 38.1346 66.0164 38.6083 65.7494 39.0525C65.4824 39.4966 65.0869 39.8569 64.5628 40.1333C64.0386 40.4096 63.4206 40.5478 62.7086 40.5478Z" fill="white"/>
<path d="M67.9286 36.3728C67.9286 35.5338 68.0967 34.8034 68.433 34.1816C68.7692 33.5499 69.2339 33.0614 69.8273 32.7159C70.4305 32.3705 71.1178 32.1977 71.8891 32.1977C72.8879 32.1977 73.7086 32.4396 74.3514 32.9232C75.0041 33.4068 75.4342 34.078 75.6419 34.9367H74.1882C74.0498 34.4432 73.7779 34.0533 73.3724 33.7671C72.9769 33.4809 72.4824 33.3377 71.8891 33.3377C71.1178 33.3377 70.4948 33.6042 70.0201 34.1372C69.5454 34.6603 69.3081 35.4055 69.3081 36.3728C69.3081 37.3499 69.5454 38.105 70.0201 38.6379C70.4948 39.1709 71.1178 39.4374 71.8891 39.4374C72.4824 39.4374 72.9769 39.2992 73.3724 39.0229C73.768 38.7465 74.0399 38.3517 74.1882 37.8385H75.6419C75.4244 38.6676 74.9892 39.3338 74.3366 39.8372C73.6839 40.3307 72.8681 40.5774 71.8891 40.5774C71.1178 40.5774 70.4305 40.4047 69.8273 40.0592C69.2339 39.7138 68.7692 39.2252 68.433 38.5935C68.0967 37.9618 67.9286 37.2216 67.9286 36.3728Z" fill="white"/>
<path d="M81.7743 32.1829C82.3874 32.1829 82.9412 32.3162 83.4356 32.5827C83.9301 32.8393 84.3157 33.2292 84.5926 33.7523C84.8794 34.2754 85.0228 34.912 85.0228 35.6621V40.4442H83.6878V35.8546C83.6878 35.0453 83.4851 34.4284 83.0796 34.004C82.6742 33.5697 82.1204 33.3525 81.4183 33.3525C80.7063 33.3525 80.1377 33.5746 79.7125 34.0188C79.2971 34.4629 79.0895 35.1094 79.0895 35.9582V40.4442H77.7396V29.4884H79.0895V33.4858C79.3565 33.0712 79.7224 32.7505 80.1871 32.5235C80.6618 32.2964 81.1908 32.1829 81.7743 32.1829Z" fill="white"/>
<path d="M91.0695 40.5774C90.3081 40.5774 89.6159 40.4047 88.9929 40.0592C88.3798 39.7138 87.8952 39.2252 87.5392 38.5935C87.1931 37.952 87.02 37.2117 87.02 36.3728C87.02 35.5437 87.198 34.8133 87.554 34.1816C87.9199 33.5401 88.4144 33.0515 89.0374 32.7159C89.6604 32.3705 90.3575 32.1977 91.1288 32.1977C91.9002 32.1977 92.5973 32.3705 93.2203 32.7159C93.8433 33.0515 94.3328 33.5351 94.6888 34.1668C95.0547 34.7985 95.2377 35.5338 95.2377 36.3728C95.2377 37.2117 95.0498 37.952 94.674 38.5935C94.3081 39.2252 93.8087 39.7138 93.1758 40.0592C92.5429 40.4047 91.8408 40.5774 91.0695 40.5774ZM91.0695 39.393C91.5541 39.393 92.0089 39.2795 92.4342 39.0525C92.8594 38.8255 93.2006 38.485 93.4577 38.0309C93.7247 37.5769 93.8582 37.0242 93.8582 36.3728C93.8582 35.7214 93.7296 35.1686 93.4725 34.7146C93.2154 34.2606 92.8792 33.925 92.4638 33.7079C92.0485 33.4809 91.5986 33.3673 91.114 33.3673C90.6196 33.3673 90.1647 33.4809 89.7494 33.7079C89.3439 33.925 89.0176 34.2606 88.7704 34.7146C88.5231 35.1686 88.3995 35.7214 88.3995 36.3728C88.3995 37.0341 88.5182 37.5917 88.7555 38.0457C89.0027 38.4998 89.3291 38.8403 89.7345 39.0673C90.14 39.2844 90.585 39.393 91.0695 39.393Z" fill="white"/>
<path d="M100.854 40.5774C100.093 40.5774 99.4006 40.4047 98.7776 40.0592C98.1645 39.7138 97.6799 39.2252 97.3239 38.5935C96.9778 37.952 96.8048 37.2117 96.8048 36.3728C96.8048 35.5437 96.9828 34.8133 97.3388 34.1816C97.7046 33.5401 98.1991 33.0515 98.8221 32.7159C99.4451 32.3705 100.142 32.1977 100.914 32.1977C101.685 32.1977 102.382 32.3705 103.005 32.7159C103.628 33.0515 104.118 33.5351 104.474 34.1668C104.839 34.7985 105.022 35.5338 105.022 36.3728C105.022 37.2117 104.834 37.952 104.459 38.5935C104.093 39.2252 103.593 39.7138 102.961 40.0592C102.328 40.4047 101.626 40.5774 100.854 40.5774ZM100.854 39.393C101.339 39.393 101.794 39.2795 102.219 39.0525C102.644 38.8255 102.985 38.485 103.242 38.0309C103.509 37.5769 103.643 37.0242 103.643 36.3728C103.643 35.7214 103.514 35.1686 103.257 34.7146C103 34.2606 102.664 33.925 102.249 33.7079C101.833 33.4809 101.383 33.3673 100.899 33.3673C100.404 33.3673 99.9494 33.4809 99.5341 33.7079C99.1286 33.925 98.8023 34.2606 98.5551 34.7146C98.3079 35.1686 98.1842 35.7214 98.1842 36.3728C98.1842 37.0341 98.3029 37.5917 98.5402 38.0457C98.7875 38.4998 99.1138 38.8403 99.5192 39.0673C99.9247 39.2844 100.37 39.393 100.854 39.393Z" fill="white"/>
<path d="M108.444 29.4884V40.4442H107.094V29.4884H108.444Z" fill="white"/>
<path d="M31.7586 7.75733C30.9775 6.97628 29.7112 6.97628 28.9302 7.75733L22.8859 13.8015C22.1049 14.5826 22.1049 15.8489 22.8859 16.63L25.0294 18.7734C25.8104 19.5545 27.0768 19.5545 27.8578 18.7734L33.902 12.7292C34.6831 11.9482 34.6831 10.6818 33.902 9.90078L31.7586 7.75733Z" fill="white"/>
<path d="M23.6575 20.1445C24.4386 20.9256 24.4385 22.1921 23.6572 22.9731L20.6447 25.9846C19.8636 26.7654 18.5975 26.7653 17.8165 25.9843L15.593 23.7608C14.812 22.9798 13.5457 22.9798 12.7646 23.7608L7.67751 28.8479C6.89646 29.629 5.63013 29.629 4.84909 28.8479L1.41435 25.4132C0.633246 24.6321 0.633305 23.3657 1.41448 22.5846L12.3432 11.658C13.1243 10.877 14.3905 10.8771 15.1715 11.6581L23.6575 20.1445Z" fill="white"/>
<path d="M25.4154 1.41421C24.6344 0.633162 23.3681 0.633164 22.587 1.41421L16.5428 7.45841C15.7618 8.23946 15.7618 9.50579 16.5428 10.2868L18.6863 12.4303C19.4673 13.2113 20.7336 13.2113 21.5147 12.4303L27.5589 6.38609C28.34 5.60504 28.34 4.33871 27.5589 3.55766L25.4154 1.41421Z" fill="white"/>
<path d="M36.3436 32.8284C37.1248 33.6094 37.1249 34.8759 36.3438 35.657L25.4154 46.5857C24.6344 47.3668 23.3681 47.3668 22.587 46.5858L9.04855 33.0473C8.2676 32.2664 8.26748 31.0003 9.04827 30.2192L12.7643 26.5018C13.5454 25.7203 14.8122 25.7204 15.5933 26.5019L17.8161 28.7257C18.5972 29.5072 19.8639 29.5073 20.6451 28.7259L25.0271 24.3426C25.8081 23.5614 27.0744 23.5613 27.8556 24.3423L36.3436 32.8284Z" fill="white"/>
<path d="M38.099 14.0983C37.318 13.3173 36.0517 13.3173 35.2706 14.0983L29.2264 20.1426C28.4453 20.9236 28.4453 22.1899 29.2264 22.971L31.372 25.1166C32.153 25.8976 33.4194 25.8976 34.2004 25.1166L40.2446 19.0724C41.0257 18.2913 41.0257 17.025 40.2446 16.2439L38.099 14.0983Z" fill="white"/>
<path d="M44.4423 20.441C43.6613 19.66 42.3949 19.66 41.6139 20.441L35.5697 26.4852C34.7886 27.2663 34.7886 28.5326 35.5697 29.3137L37.7131 31.4571C38.4942 32.2382 39.7605 32.2382 40.5416 31.4571L46.5858 25.4129C47.3668 24.6319 47.3668 23.3655 46.5858 22.5845L44.4423 20.441Z" fill="white"/>
</svg>
