<svg width="95" height="141" viewBox="0 0 95 141" fill="none" xmlns="http://www.w3.org/2000/svg">
<path d="M88.7635 113.785H6.23421C3.98417 113.785 2.16016 115.611 2.16016 117.864V134.756C2.16016 137.009 3.98417 138.836 6.23421 138.836H88.7635C91.0135 138.836 92.8376 137.009 92.8376 134.756V117.864C92.8376 115.611 91.0135 113.785 88.7635 113.785Z" stroke="#282F36" stroke-width="4" stroke-miterlimit="10"/>
<path d="M9.33594 48.5764V40.6552C9.33594 19.4024 26.5507 2.16431 47.7747 2.16431C69.0095 2.16431 86.2134 19.4024 86.2134 40.6552V113.774H9.33594V67.4918" stroke="#282F36" stroke-width="4" stroke-miterlimit="10" stroke-linecap="round"/>
<path d="M48.6934 41.5857V113.785" stroke="#282F36" stroke-width="4" stroke-miterlimit="10"/>
<path d="M49.3188 76.2135C49.3188 76.2135 45.5689 49.3228 76.4755 49.5068C76.4755 49.5068 76.5404 86.5261 49.3188 76.2135Z" stroke="#282F36" stroke-width="4" stroke-miterlimit="10"/>
<path d="M48.2623 87.1213C48.2623 87.1213 49.1808 59.9818 18.4688 63.4012C18.4688 63.4012 22.2618 100.226 48.2623 87.1213Z" stroke="#282F36" stroke-width="4" stroke-miterlimit="10"/>
<path d="M86.2239 99.4143H64.5137" stroke="#282F36" stroke-width="4" stroke-miterlimit="10" stroke-linecap="round"/>
<path d="M9.33594 99.4143H26.9938" stroke="#282F36" stroke-width="4" stroke-miterlimit="10" stroke-linecap="round"/>
<path d="M48.6926 42.3649C54.3326 42.3649 58.9048 37.7865 58.9048 32.1389C58.9048 26.4912 54.3326 21.9128 48.6926 21.9128C43.0526 21.9128 38.4805 26.4912 38.4805 32.1389C38.4805 37.7865 43.0526 42.3649 48.6926 42.3649Z" stroke="#282F36" stroke-width="4" stroke-miterlimit="10"/>
</svg>
