<svg width="158" height="144" viewBox="0 0 158 144" fill="none" xmlns="http://www.w3.org/2000/svg">
<path d="M42.0557 77.4079C54.8267 77.4079 65.1797 67.0549 65.1797 54.2839C65.1797 41.5128 54.8267 31.1599 42.0557 31.1599C29.2846 31.1599 18.9316 41.5128 18.9316 54.2839C18.9316 67.0549 29.2846 77.4079 42.0557 77.4079Z" stroke="#282F36" stroke-width="4" stroke-miterlimit="10"/>
<path d="M15.7971 94.966H67.5314C75.1452 94.966 81.3284 101.149 81.3284 108.763C81.3284 127.107 66.4354 142 48.0915 142H35.237C16.8931 141.997 2 127.104 2 108.76C2 101.146 8.18319 94.9629 15.7971 94.9629V94.966Z" stroke="#282F36" stroke-width="4" stroke-miterlimit="10"/>
<path d="M155.164 11.2195V42.6298C155.164 47.7231 151.035 51.8493 145.944 51.8493H125.771L105.256 72.3637C104.612 73.0085 103.509 72.551 103.509 71.6392V51.8493H94.7781C89.6848 51.8493 85.5586 47.72 85.5586 42.6298V11.2195C85.5586 6.12622 89.6879 2 94.7781 2H145.941C151.035 2 155.161 6.12929 155.161 11.2195H155.164Z" stroke="#282F36" stroke-width="4" stroke-miterlimit="10"/>
</svg>
