<svg width="168" height="166" viewBox="0 0 168 166" fill="none" xmlns="http://www.w3.org/2000/svg">
<g clip-path="url(#clip0_507_753)">
<path d="M104.186 99.7767C105.675 101.87 105.077 104.272 105.106 106.559C105.113 107.124 105.003 107.745 105.003 108.336C104.993 125.938 104.987 143.54 105.003 161.142C105.003 163.5 104.871 164.039 102.087 164.043C90.566 164.056 79.0486 164.043 67.528 164.062C66.7173 164.062 65.9583 163.884 65.1832 163.7C64.6955 162.635 64.7827 161.478 64.7827 160.332C64.7827 143.269 64.7956 107.602 65.1089 106.879C65.2058 106.659 65.4545 106.417 65.4125 106.236C64.0366 100.507 64.8053 87.229 64.7924 86.3698C64.773 84.6968 65.2607 84.3609 66.8788 84.0735C68.8651 83.7182 99.942 83.9281 102.087 83.9992C104.599 84.0832 105.119 84.0186 105.152 87.0158C105.181 89.9226 105.106 97.293 104.813 97.9874C104.444 98.8562 104.095 99.6055 102.926 100.019C101.06 100.681 95.8402 106.298 93.6924 106.275C84.326 106.178 74.9597 106.233 65.5933 106.233" stroke="white" stroke-width="4" stroke-linecap="round" stroke-linejoin="round"/>
<path d="M114.198 140.795C113.397 141.967 113.203 143.269 113.213 144.671C113.252 150 113.229 155.329 113.229 160.658C113.229 161.666 113.148 162.683 113.714 163.72C114.641 164.136 115.797 164.052 116.943 164.052C127.925 164.052 138.906 164.052 149.887 164.052C150.895 164.052 151.912 164.133 152.939 163.571C153.366 162.641 153.278 161.485 153.278 160.338C153.278 157.002 153.285 153.662 153.275 150.326C153.269 148.388 153.081 146.476 153.181 144.506C153.462 138.922 153.265 133.315 153.295 127.717C153.298 126.907 153.117 126.148 152.933 125.366C151.602 124.788 150.168 125.001 148.757 124.975C147.659 124.956 146.547 125.069 145.517 124.504C145.307 124.391 145.078 124.252 144.703 124.459C143.402 125.176 141.939 124.969 140.521 124.972C134.924 124.975 129.317 125.16 123.729 124.895C121.016 124.765 118.345 125.053 115.651 124.992C113.63 124.946 113.245 125.373 113.236 127.398C113.216 130.628 113.158 133.861 113.258 137.087C113.313 138.792 113.601 140.401 115.632 141.176C117.344 141.828 118.426 143.469 119.472 144.881C120.89 146.789 122.544 147.342 124.856 147.313C134.061 147.193 143.266 147.264 152.471 147.264" stroke="white" stroke-width="4" stroke-linecap="round" stroke-linejoin="round"/>
<path d="M120.819 55.5288C119.979 55.2252 119.084 55.1476 118.225 54.9248C115.887 54.324 113.561 56.2942 113.558 58.7585C113.545 67.1559 113.577 75.5534 113.542 83.9508C113.526 87.4519 113.009 90.9432 113.238 94.4476C113.522 98.7658 113.807 103.087 115.328 107.205C116.284 109.789 117.46 112.221 119.85 113.829C120.538 114.291 120.68 114.97 120.67 115.764C120.638 118.616 120.657 121.471 120.657 124.323" stroke="white" stroke-width="4" stroke-linecap="round" stroke-linejoin="round"/>
<path d="M97.726 83.4663C97.726 80.5595 97.7325 77.6527 97.7228 74.7459C97.7228 74.0159 97.8423 73.4766 98.5141 72.9404C102.119 70.0692 103.375 65.948 104.173 61.6621C105.045 56.966 104.957 52.2214 104.883 47.4543C104.728 37.7682 104.838 28.0756 104.838 18.3863C104.838 15.1048 102.677 13.4124 99.5089 14.1811C98.8726 14.3362 98.2202 14.404 97.5742 14.5106" stroke="white" stroke-width="4" stroke-linecap="round" stroke-linejoin="round"/>
<path d="M47.1797 83.6278C48.0194 83.3242 48.9141 83.2466 49.7732 83.0238C52.1148 82.4231 54.4402 84.4061 54.4435 86.8575C54.4499 92.726 54.5403 98.5945 54.4176 104.46C54.2949 110.496 54.915 116.517 54.7406 122.547C54.6179 126.823 54.1269 131.06 52.6897 135.149C51.7918 137.707 50.6485 140.087 48.4458 141.731C47.4704 142.458 47.3218 143.282 47.3283 144.348C47.3541 150.268 47.3412 156.191 47.3412 162.111" stroke="white" stroke-width="4" stroke-linecap="round" stroke-linejoin="round"/>
<path d="M17.1429 106.236C15.4117 105.371 14.53 103.794 13.5611 102.218C12.2078 100.012 10.6866 97.9227 7.9445 97.1767C6.13583 96.6857 3.44219 97.3349 2.27625 98.6397C1.74333 99.2373 1.9565 99.8735 2.14705 100.419C3.28717 103.665 4.51125 106.879 5.67397 110.118C6.827 113.338 8.09953 116.533 9.0071 119.824C9.51417 121.665 9.39144 123.683 9.55293 125.621C9.93404 130.149 10.9353 134.493 13.4287 138.379C15.1824 141.111 17.5757 142.859 20.8507 143.411C22.7466 143.731 22.9533 144.141 22.9533 146.13C22.9533 151.405 22.9533 156.682 22.9533 161.956" stroke="white" stroke-width="4" stroke-linecap="round" stroke-linejoin="round"/>
<path d="M85.4536 61.6653C85.3147 59.243 85.7217 56.8078 85.1436 54.3951C84.3716 51.1815 82.4919 48.8883 79.6465 47.2831C77.0271 45.8071 74.1946 45.1289 71.2426 44.8802C69.5986 44.7445 68.7751 44.1438 68.5038 42.6064C68.3067 41.4825 68.184 40.3456 68.0096 39.2184C67.8223 38.0072 67.5057 36.8865 66.2397 36.3019C65.4193 35.924 65.0382 35.1134 64.6248 34.3705C63.6268 32.5715 62.4059 30.9534 60.917 29.5194C58.9178 27.5944 54.9064 27.6203 53.1332 29.177C52.497 29.7358 52.3161 30.1363 52.4776 30.9889C52.9685 33.5824 54.1312 35.9369 54.9807 38.3948C56.3759 42.432 57.8487 46.4434 59.1826 50.5065C59.6348 51.8791 59.5121 53.2066 59.6251 54.5598C60.0514 59.5821 60.7361 64.5269 63.4847 68.9388C65.274 71.8101 67.6026 73.7899 71.0811 74.2873C72.9641 74.5554 73.1805 74.9752 73.1837 77.0068C73.1869 79.1061 73.1837 81.2055 73.1837 83.3048" stroke="white" stroke-width="4" stroke-linecap="round" stroke-linejoin="round"/>
<path d="M132.932 102.683C131.718 95.1516 134.327 88.6113 142.786 86.5507C144.588 86.1115 146.449 85.9144 148.27 85.5495C148.926 85.4171 149.472 85.1781 149.598 84.2769C149.862 82.4295 150.331 80.6144 150.683 78.7799C150.751 78.4311 150.621 78.0176 151.022 77.8174C153.15 76.7548 153.922 74.5682 155.24 72.8209C156.571 71.0575 158.066 69.4168 160.388 68.9323C162.449 68.506 164.177 69.2876 165.705 70.5601C166.37 71.1124 165.96 71.8229 165.724 72.485C164.151 76.8937 162.591 81.3088 161.038 85.7271C160.32 87.7683 159.578 89.7999 158.954 91.8669C158.467 93.485 158.696 95.2065 158.525 96.8763C158.144 100.607 157.533 104.247 156.015 107.683C154.245 111.685 151.455 114.588 146.978 115.415C145.509 115.687 144.947 116.365 145.018 117.86C145.121 119.953 145.044 122.059 145.044 124.158" stroke="white" stroke-width="4" stroke-linecap="round" stroke-linejoin="round"/>
<path d="M27.3991 35.3427C27.6316 34.9971 27.5056 34.5255 27.3022 34.3996C24.9961 32.9655 23.73 30.4237 21.3594 29.0155C17.503 26.7224 14.0536 26.9291 10.8788 29.2545C5.66267 33.0689 5.4269 37.6035 8.47581 42.9036C11.5215 48.1972 16.1304 52.1213 21.0235 55.687C22.6771 56.8917 24.3372 58.09 26.0393 59.2268C26.695 59.6661 27.4475 60.1183 28.2873 59.566C34.8469 55.2381 41.1741 50.626 45.699 44.0437C47.1717 41.8991 48.1859 39.5091 48.3377 36.7993C48.5347 33.2756 45.1531 28.7378 40.7219 27.7559C37.0981 26.9549 34.1202 28.1499 31.5041 30.6466C30.209 31.8836 29.211 33.4662 27.4798 34.2122" stroke="white" stroke-width="4" stroke-linecap="round" stroke-linejoin="round"/>
<path d="M137.129 12.7342C135.407 11.6781 134.222 10.0438 132.775 8.69055C130.078 6.17133 126.994 5.14426 123.406 6.29083C119.743 7.46001 117.343 9.98246 116.51 13.7161C116.087 15.6087 116.607 17.5563 117.427 19.3585C119.058 22.9436 121.565 25.8826 124.387 28.5472C127.714 31.693 131.402 34.3931 135.178 36.9802C136.38 37.8038 137.494 38.1493 138.744 37.2773C143.837 33.7213 148.859 30.0749 152.958 25.3304C154.718 23.2924 156.201 21.0864 157.16 18.5478C158.994 13.6838 156.979 9.58197 153.119 7.24361C149.04 4.77284 144.551 5.78053 141.47 8.6744C140.081 9.976 139.128 11.7524 137.294 12.5727" stroke="white" stroke-width="4" stroke-linecap="round" stroke-linejoin="round"/>
<path d="M27.9636 108.497C27.9636 98.5914 27.9636 88.6889 27.9572 78.7831C27.9572 78.1372 27.8861 77.488 27.7957 76.8453C27.6632 75.9054 27.2272 75.2627 26.1905 75.0495C25.0019 74.804 23.9006 74.0386 22.6377 74.2744C20.0151 74.7653 18.6037 76.5998 18.6005 79.4291C18.594 86.9642 18.5908 94.5025 18.6102 102.038C18.6102 102.871 18.7039 103.849 18.2323 104.424C16.9242 106.013 17.4927 107.644 17.7898 109.305C17.8964 109.896 18.0127 110.487 18.1096 111.081C18.4842 113.348 19.1915 113.817 21.5008 114.017C25.6802 114.375 29.5656 115.554 32.4788 118.839C34.0259 120.583 34.8366 122.631 35.1014 124.966C35.2661 126.422 35.4373 127.866 35.3921 129.329" stroke="white" stroke-width="4" stroke-linecap="round" stroke-linejoin="round"/>
<path d="M150.857 77.8142C149.743 76.5094 149.374 75.001 149.384 73.2925C149.429 65.9706 149.407 58.6519 149.4 51.33C149.4 49.305 148.703 47.6158 146.813 46.6565C144.707 45.5875 142.673 46.3885 140.887 47.3703C139.83 47.9517 140.066 49.5181 140.053 50.6841C140.011 54.8279 140.037 58.9749 140.037 63.1187V80.398" stroke="white" stroke-width="4" stroke-linecap="round" stroke-linejoin="round"/>
<path d="M77.5403 6.43613C76.2 5.85477 74.8693 5.37999 73.3416 5.44136C70.719 5.54794 68.9911 7.18221 68.9879 9.82739C68.975 17.4174 68.9588 25.0073 69.004 32.5973C69.0137 34.3059 68.6455 35.8142 67.5312 37.119" stroke="white" stroke-width="4" stroke-linecap="round" stroke-linejoin="round"/>
<path d="M87.3921 39.7028C87.3921 30.6045 87.3889 21.5095 87.3986 12.4112C87.3986 11.6587 87.2758 10.7866 87.5956 10.173C88.4385 8.56133 87.7926 7.08855 87.3566 5.63838C86.8204 3.85555 85.6222 2.47966 83.6746 2.27296C81.7012 2.06302 79.9442 2.50873 78.7944 4.47567C78.1323 5.60609 77.3313 6.52011 78.1549 7.90892C78.3681 8.26742 78.1872 8.85847 78.1872 9.34294V39.5413" stroke="white" stroke-width="4" stroke-linecap="round" stroke-linejoin="round"/>
<path d="M140.683 47.2928C140.305 46.6469 139.956 45.9848 139.546 45.3582C138.419 43.627 136.229 42.671 134.233 43.2911C132.495 43.8305 131.494 45.0126 130.877 46.9343C130.263 48.8463 130.838 50.5226 130.835 52.299C130.822 61.6104 130.829 70.9251 130.829 80.2365" stroke="white" stroke-width="4" stroke-linecap="round" stroke-linejoin="round"/>
<path d="M27.3184 75.3919C27.7479 74.691 28.1452 73.9676 28.6167 73.299C29.7859 71.6454 31.8433 70.7733 33.765 71.3934C35.5478 71.9683 36.5749 73.131 37.1175 75.2013C37.9314 78.3084 36.7655 81.2507 37.0723 84.2835C37.1853 85.4074 37.1918 86.6412 37.1853 87.8265C37.1466 94.664 37.1659 101.498 37.1659 108.336" stroke="white" stroke-width="4" stroke-linecap="round" stroke-linejoin="round"/>
<path d="M88.3594 8.05101C89.6416 8.08654 90.7688 7.34369 92.0736 7.38568C94.651 7.46642 96.5856 9.22342 96.7568 11.7653C96.76 11.8202 96.7439 11.8783 96.7568 11.9267C97.8194 14.9434 96.4435 17.9406 96.7019 20.9766C96.9506 23.9157 96.7568 26.8935 96.7568 29.8552V41.3209" stroke="white" stroke-width="4" stroke-linecap="round" stroke-linejoin="round"/>
<path d="M130.024 49.0692C128.593 49.0531 127.301 48.3328 125.825 48.3845C123.535 48.4652 121.791 50.0898 121.63 52.4605C121.623 52.5671 121.656 52.6833 121.623 52.7835C120.567 56.0132 121.911 59.2301 121.678 62.4792C121.442 65.7445 121.626 69.0422 121.626 72.3268V82.0162" stroke="white" stroke-width="4" stroke-linecap="round" stroke-linejoin="round"/>
<path d="M37.9766 77.1682C39.4397 77.0261 40.8058 76.3866 42.34 76.4964C44.5685 76.6579 46.3094 78.3148 46.374 80.5595C46.374 80.6144 46.3611 80.6725 46.374 80.721C47.3914 84.0057 46.1091 87.2774 46.3255 90.575C46.5387 93.7919 46.3708 97.0313 46.3708 100.261V110.112" stroke="white" stroke-width="4" stroke-linecap="round" stroke-linejoin="round"/>
<path d="M94.4961 86.8576C94.7448 85.9597 94.9192 85.0521 94.8191 84.1123" stroke="white" stroke-width="4" stroke-linecap="round" stroke-linejoin="round"/>
</g>
<defs>
<clipPath id="clip0_507_753">
<rect width="168" height="165.713" fill="white" transform="translate(0 0.286667)"/>
</clipPath>
</defs>
</svg>
