<svg width="130" height="86" viewBox="0 0 130 86" fill="none" xmlns="http://www.w3.org/2000/svg">
<g clip-path="url(#clip0_507_873)">
<path d="M18.7834 48.4377C18.3547 48.1248 18.0149 47.8614 17.6593 47.6214C16.7627 47.0216 15.8607 46.4322 14.8386 45.7594C14.0831 47.9579 13.3668 50.0468 12.6453 52.1358C11.8714 54.3839 10.8467 54.8559 8.69516 53.9353C6.29792 52.9078 3.89284 51.8959 1.51913 50.8162C-0.0128085 50.1199 -0.444155 48.5942 0.491736 47.4102C1.30476 46.3827 2.33999 46.4087 3.43796 46.8756C5.23132 47.6371 7.02206 48.4064 8.94351 49.2279C9.8428 46.6617 10.7107 44.2181 11.5577 41.7692C14.619 32.9074 17.6541 24.0377 20.7546 15.1889C21.1284 14.1248 21.0447 13.6345 19.9311 13.1416C14.0831 10.5519 8.2795 7.87096 2.46286 5.22128C2.06811 5.04133 1.66291 4.87442 1.28385 4.66317C0.149273 4.03726 -0.271616 2.89237 0.212015 1.79703C0.69826 0.688648 1.95831 0.190528 3.17131 0.730375C6.66653 2.28733 10.1434 3.886 13.6282 5.46903C16.9927 6.9999 20.365 8.52034 23.7217 10.0695C26.2261 11.2248 26.3673 11.5299 25.8105 14.3387C27.7136 14.6725 29.6168 15.0089 31.5199 15.3402C33.8335 15.7418 36.1523 16.1173 38.4633 16.5476C40.0188 16.8371 40.8266 17.8594 40.6017 19.1269C40.3665 20.4387 39.326 21.0933 37.7365 20.8325C33.7446 20.1779 29.7553 19.5233 25.7791 18.7853C24.6445 18.574 24.0955 18.7827 23.7034 19.9588C21.4316 26.75 19.0945 33.5202 16.7104 40.2722C16.3784 41.2137 16.5457 41.6962 17.3639 42.1447C18.0096 42.4994 18.6475 42.8984 19.2069 43.3731C20.9062 44.8127 22.5427 45.3369 24.9347 44.6171C29.256 43.3183 32.1343 45.4699 34.6073 49.5878C35.1798 50.5398 35.6269 51.0535 36.8529 51.2309C40.7063 51.789 43.3885 54.0527 45.0799 57.5395C45.255 57.8994 45.7518 58.3036 46.1256 58.3349C51.1187 58.747 54.8519 62.1817 55.6021 67.2098C55.7407 68.1461 56.0727 68.5581 57.0321 68.845C58.4699 69.2753 59.9182 69.8699 61.1704 70.6862C63.6749 72.3214 64.5349 75.0076 63.7088 77.8868C63.518 78.5466 63.2618 79.1882 63.0422 79.8245C65.7322 81.8066 67.74 81.238 68.8432 78.2258C70.1163 74.7494 70.43 74.7051 73.9331 76.1134C75.7604 76.8488 77.7315 77.4278 79.6817 77.613C82.2489 77.8581 84.667 75.4771 84.8317 72.8952C84.8527 72.5796 84.5076 72.1258 84.2069 71.9276C82.3142 70.6888 80.3667 69.5361 78.4792 68.2869C77.3106 67.515 77.0544 66.2553 77.7341 65.2356C78.4191 64.2081 79.6399 63.9629 80.8477 64.6201C81.1901 64.8079 81.5195 65.0217 81.8515 65.2304C83.7312 66.4118 85.569 67.6636 87.4983 68.7563C89.8537 70.0942 92.3502 69.9873 94.7762 68.9572C96.086 68.4017 96.9434 66.5657 96.6271 65.2356C96.533 64.8418 96.1121 64.4662 95.7513 64.2081C93.5188 62.6198 91.2601 61.0681 89.0093 59.5033C88.7243 59.3051 88.4289 59.1173 88.1597 58.8983C87.1035 58.0402 86.8708 56.7702 87.5819 55.7948C88.2904 54.822 89.6158 54.5899 90.7242 55.3436C93.3123 57.104 95.8977 58.8722 98.4309 60.7108C100.81 62.4399 103.495 62.6433 106.271 62.479C107.23 62.4216 107.803 61.8609 108.104 60.9012C108.969 58.1524 108.483 56.778 105.996 55.3593C95.1553 49.168 84.3141 42.9819 73.4729 36.7958C73.2089 36.6446 72.9318 36.5089 72.6861 36.329C71.6744 35.5935 71.3868 34.3261 71.9907 33.3351C72.6259 32.2971 73.7971 31.945 74.9474 32.584C77.9877 34.2739 80.9993 36.0186 84.0213 37.7451C91.3124 41.9074 98.6008 46.0723 105.892 50.2294C106.224 50.4172 106.579 50.5658 107.019 50.7797C107.314 49.5305 107.711 48.4091 107.824 47.2589C108.015 45.2795 109.011 44.1763 110.945 43.8347C111.316 43.7695 111.669 43.5843 112.195 43.3966C109.1 35.1867 106.033 27.0525 102.922 18.7983C100.643 19.3747 98.4623 19.9249 96.2794 20.4752C95.6049 20.6447 94.9331 20.8325 94.2534 20.9838C92.2431 21.4323 91.1895 20.59 91.1294 18.5088C91.1242 18.295 91.1111 18.0811 91.0928 17.7264C88.476 17.3665 85.8644 16.9962 83.2501 16.6546C77.5538 15.9087 71.86 15.1628 66.1584 14.4665C65.6146 14.4013 64.9375 14.5317 64.48 14.8212C59.0634 18.2167 53.6702 21.6488 48.2928 25.107C47.8222 25.4095 47.3124 25.8867 47.1425 26.3901C45.7831 30.4115 44.5022 34.4591 43.1846 38.5405C45.2655 40.0088 48.8156 39.0856 50.46 37.693C52.1383 36.2716 53.2755 34.4904 53.9918 32.4614C54.4885 31.0531 55.3747 30.3855 56.8308 30.1794C59.0686 29.8639 61.2881 29.4127 63.518 29.0241C65.1205 28.7424 66.3126 29.4205 66.5296 30.7297C66.7466 32.0415 65.8708 33.0404 64.2631 33.3351C62.5089 33.6558 60.7652 34.0575 59.0006 34.2896C58.1771 34.3991 57.8268 34.772 57.4974 35.4658C55.8845 38.8691 53.5866 41.6284 49.9162 42.9584C46.6693 44.1346 43.4931 43.8947 40.458 42.2517C37.8856 40.8564 37.6712 39.336 38.8058 36.7228C40.2514 33.3898 41.5115 29.9343 42.4108 26.4214C43.0696 23.8473 44.3662 22.2304 46.6092 20.8847C52.052 17.6195 57.3641 14.1353 62.6971 10.6876C63.8369 9.9495 64.9454 9.79042 66.2734 9.97298C73.9461 11.024 81.6267 12.0046 89.3047 13.0086C90.685 13.1886 92.0705 13.3398 93.4456 13.5511C94.7736 13.7545 95.5004 14.5891 95.6546 16.0704C97.5421 15.5983 99.3302 15.1524 101.178 14.6908C101.131 14.3491 101.124 14.0962 101.058 13.8588C100.577 12.135 100.896 11.3395 102.509 10.6224C110.302 7.16681 118.1 3.72692 125.906 0.297454C127.334 -0.328456 128.586 0.0679537 129.138 1.2311C129.726 2.46988 129.195 3.64607 127.632 4.33979C120.715 7.40935 113.787 10.4554 106.864 13.512C106.553 13.6502 106.258 13.8145 105.858 14.0179C106.394 15.4836 106.898 16.9023 107.429 18.3132C110.54 26.557 113.638 34.8033 116.785 43.0314C117.405 44.651 118.231 46.1897 118.916 47.7857C119.235 48.5316 119.692 48.5525 120.375 48.3334C122.526 47.6345 124.688 46.9669 126.855 46.3227C128.366 45.8741 129.488 46.4061 129.89 47.6971C130.288 48.9672 129.639 50.0338 128.105 50.5189C125.161 51.4499 122.212 52.3627 119.256 53.2572C117.606 53.7554 116.746 53.3642 115.978 51.8124C115.418 50.6858 114.927 49.5227 114.333 48.4117C114.169 48.1039 113.695 47.6919 113.457 47.744C112.966 47.8536 112.252 48.1561 112.135 48.5342C111.661 50.0651 111.34 51.6455 111.063 53.2259C111.003 53.5702 111.298 54.024 111.526 54.3656C113.423 57.1953 113.282 61.8739 111.175 64.5601C109.832 66.2736 107.928 66.863 105.874 66.9282C104.282 66.9777 102.682 66.8056 101.014 66.7299C100.512 69.7839 99.0217 72.2223 96.0285 73.1925C94.175 73.7923 92.1176 73.7975 90.1465 73.9931C89.5556 74.0531 89.1191 74.0009 88.889 74.739C86.7976 81.3945 81.3888 83.5513 74.5056 81.1441C73.9409 80.9459 73.3788 80.7321 72.7802 80.513C72.5789 80.8494 72.4168 81.0998 72.2704 81.358C70.132 85.1473 66.642 86.3496 62.6056 84.6649C62.0044 84.4145 61.3743 84.172 60.8646 83.7886C60.2162 83.3009 59.7718 83.5122 59.113 83.8095C57.3432 84.6101 55.5499 85.4942 53.6702 85.8906C50.7266 86.5113 47.4405 84.5788 45.8563 81.7805C45.6106 81.3476 45.0172 80.8468 44.5675 80.8338C39.8384 80.6904 36.8582 78.2128 35.2478 73.9514C34.8818 72.9812 34.4348 72.6631 33.3969 72.5979C30.0246 72.3866 26.9686 71.3825 25.583 67.9426C25.0157 66.5344 24.872 64.9252 24.723 63.3892C24.6419 62.5572 24.5086 62.0278 23.6459 61.7435C22.9531 61.514 22.3022 61.1255 21.6748 60.7395C17.4502 58.1289 16.2633 54.35 18.2135 49.7652C18.3809 49.3688 18.5586 48.9776 18.7887 48.4456L18.7834 48.4377ZM44.91 76.395C45.689 76.5646 46.2432 76.1916 46.787 75.404C47.8667 73.8419 49.1529 72.4205 50.2796 70.887C50.724 70.282 51.1736 69.5596 51.2756 68.8398C51.7096 65.7285 48.4235 62.4268 45.3021 62.7789C44.9832 62.8154 44.6041 63.0762 44.4054 63.3448C42.7166 65.6372 41.054 67.9505 39.4123 70.2768C39.1874 70.5949 38.9443 71.0566 39.0071 71.3956C39.5926 74.486 41.7389 76.3168 44.91 76.395ZM29.0809 63.1049C29.1253 66.1719 29.8076 67.395 31.8049 67.9035C32.7199 68.1383 33.695 68.1748 34.6439 68.2243C34.9498 68.24 35.3628 68.1017 35.5667 67.8853C37.5954 65.7337 39.6868 63.6056 40.6802 60.7369C40.8867 60.137 41.0174 59.1564 40.688 58.7939C39.6711 57.6621 38.4999 56.6189 37.2242 55.7896C36.385 55.2419 35.4073 55.5783 34.6335 56.3607C33.1956 57.8107 31.75 59.2608 30.2076 60.596C29.324 61.3602 28.9266 62.1895 29.0782 63.1023L29.0809 63.1049ZM26.9032 48.6985C26.8457 48.5812 26.7882 48.4664 26.7333 48.3491C25.4576 48.988 23.821 49.3218 22.9714 50.3233C20.4618 53.2703 22.1741 57.3074 26.0275 57.9281C26.3333 57.9776 26.7699 57.7716 27.0182 57.5473C28.3018 56.379 29.554 55.1767 30.7906 53.9588C31.018 53.7345 31.2402 53.3929 31.2559 53.0929C31.3395 51.4708 28.5868 48.722 26.9058 48.7011L26.9032 48.6985ZM52.0128 81.5823C54.2401 81.6292 57.5785 79.9627 58.5275 78.6457C60.3888 76.056 59.8372 74.5043 56.8151 73.3203C55.3878 72.7596 54.2846 72.916 53.3617 74.0974C52.1906 75.5944 51.0377 77.107 49.9319 78.6535C49.7463 78.9143 49.66 79.5428 49.8221 79.7019C50.6194 80.4869 51.5161 81.1702 52.0128 81.5849V81.5823Z" fill="#282F36"/>
</g>
<defs>
<clipPath id="clip0_507_873">
<rect width="130" height="86" fill="white"/>
</clipPath>
</defs>
</svg>
