<svg width="140" height="140" viewBox="0 0 140 140" fill="none" xmlns="http://www.w3.org/2000/svg">
<path d="M3.98242 127.048H135.223C135.223 131.99 131.21 136 126.265 136H12.9406C7.99549 136 3.98242 131.99 3.98242 127.048Z" stroke="#282F36" stroke-width="4" stroke-miterlimit="10"/>
<path d="M83.264 30.368H56.6133V57.1113H83.264V30.368Z" stroke="#282F36" stroke-width="4" stroke-miterlimit="10"/>
<path d="M83.264 57.1112H56.6133V101.199H83.264V57.1112Z" stroke="#282F36" stroke-width="4" stroke-miterlimit="10"/>
<path d="M100.956 101.646L83.2637 92.9179V57.1112L100.956 70.0906V101.646Z" stroke="#282F36" stroke-width="4" stroke-miterlimit="10"/>
<path d="M38.9199 101.646L56.6125 92.9179V57.1112L38.9199 70.0906V101.646Z" stroke="#282F36" stroke-width="4" stroke-miterlimit="10"/>
<path d="M83.2092 30.368C83.2092 30.368 84.468 12.4076 69.9113 4.07172C55.3546 12.4076 56.6133 30.368 56.6133 30.368" stroke="#282F36" stroke-width="4" stroke-miterlimit="10"/>
<path d="M83.265 48.3808H127.049V113.843V126.711H12.8301V113.843V48.3808H56.6142" stroke="#282F36" stroke-width="4" stroke-miterlimit="10"/>
<path d="M12.8301 113.843C12.8301 113.843 14.5099 98.6241 30.5227 101.646C30.5227 101.646 32.6498 95.1552 38.9216 93.0295" stroke="#282F36" stroke-width="4" stroke-miterlimit="10"/>
<path d="M127.049 113.843C127.049 113.843 125.369 98.6241 109.356 101.646C109.356 101.646 107.229 95.1552 100.957 93.0295" stroke="#282F36" stroke-width="4" stroke-miterlimit="10"/>
<path d="M69.8829 92.3219C72.1702 92.3219 74.0254 94.178 74.0254 96.4614V101.199H65.7383V96.4614C65.7383 94.1758 67.5957 92.3219 69.8807 92.3219H69.8829Z" stroke="#282F36" stroke-width="4" stroke-miterlimit="10"/>
<path d="M74.0254 98.5869V109.853" stroke="#282F36" stroke-width="4" stroke-miterlimit="10" stroke-linecap="round"/>
<path d="M65.5352 108.211V119.475" stroke="#282F36" stroke-width="4" stroke-miterlimit="10" stroke-linecap="round"/>
<path d="M69.883 48.0849C72.4191 48.0849 74.475 46.0304 74.475 43.4962C74.475 40.9619 72.4191 38.9075 69.883 38.9075C67.3469 38.9075 65.291 40.9619 65.291 43.4962C65.291 46.0304 67.3469 48.0849 69.883 48.0849Z" stroke="#282F36" stroke-width="4" stroke-miterlimit="10"/>
</svg>
